<svg xmlns="http://www.w3.org/2000/svg" width="24" height="24" viewBox="0 0 24 24">
    <path fill="#878C90" fill-rule="evenodd" d="M12 24c6.627 0 12-5.373 12-12S18.627 0 12 0 0 5.373 0 12s5.373 12 12 12zm0-1.333c5.891 0 10.667-4.776 10.667-10.667S17.89 1.333 12 1.333 1.333 6.11 1.333 12 6.11 22.667 12 22.667zm-4-12A1.333 1.333 0 1 0 8 8a1.333 1.333 0 0 0 0 2.667zm8 0A1.333 1.333 0 1 0 16 8a1.333 1.333 0 0 0 0 2.667zm-4 8a5.333 5.333 0 0 0 5.333-5.334H6.667A5.333 5.333 0 0 0 12 18.667z"/>
</svg>
