<svg xmlns="http://www.w3.org/2000/svg" width="17" height="17" viewBox="0 0 17 17">
    <g fill="#969696" fill-rule="nonzero">
        <path d="M16.846 8.517c0-4.6-3.742-8.342-8.342-8.342-4.6 0-8.342 3.742-8.342 8.342 0 4.6 3.742 8.342 8.342 8.342a8.29 8.29 0 0 0 3.356-.71c2.933-1.295 4.986-4.226 4.986-7.632zM8.504.883c4.21 0 7.634 3.424 7.634 7.634a7.575 7.575 0 0 1-1.124 3.967c-.098-.019-.197-.043-.294-.058a6.286 6.286 0 0 1-.31-.052c-.225-.046-.443-.086-.648-.124-.449-.082-1.003-.185-1.134-.252v-.232a4.216 4.216 0 0 0 2.08-.565.353.353 0 1 0-.008-.618c-.297-.163-.61-1.53-.703-2.622A2.963 2.963 0 0 0 11.06 4.98c-.624.024-1.222.183-1.73.542a.354.354 0 1 0 .408.579 2.153 2.153 0 0 1 1.317-.413c1.241.01 2.244 1.027 2.235 2.3.043.521.205 2.01.673 2.795-.522.22-1.086.31-1.66.264a.368.368 0 0 0-.269.092.356.356 0 0 0-.114.261v.699c0 .037.006.074.017.11.148.453.765.567 1.697.738.2.038.414.077.634.122.103.02.206.037.311.053a7.677 7.677 0 0 1-2.537 2.154v-1.21a.767.767 0 0 0-.482-.72c-3.112-1.23-3.684-1.752-3.786-1.914v-.377c.374-.443.652-.965.81-1.523.462-.419.563-1.113.22-1.679v-1.2c0-1.67-1.01-2.628-2.769-2.628-1.733 0-2.769.982-2.769 2.627v1.194c-.337.521-.259 1.215.217 1.676a4.09 4.09 0 0 0 .813 1.533v.374c-.075.111-.453.473-2.188 1.242A7.582 7.582 0 0 1 .87 8.517C.87 4.307 4.295.883 8.504.883zM2.533 13.258c1.977-.886 2.355-1.317 2.456-1.65a.356.356 0 0 0 .016-.103v-.584a.356.356 0 0 0-.092-.238 3.377 3.377 0 0 1-.77-1.44.465.465 0 0 0-.152-.211.607.607 0 0 1-.094-.852.352.352 0 0 0 .078-.221V6.65c0-1.255.712-1.919 2.06-1.919 1.367 0 2.06.646 2.06 1.92v1.306c0 .076.048.18.093.24a.606.606 0 0 1-.127.847.355.355 0 0 0-.133.199 3.381 3.381 0 0 1-.77 1.44.354.354 0 0 0-.092.237v.584c0 .035.005.07.015.103.131.43.732 1.017 4.252 2.454v1.539a7.583 7.583 0 0 1-2.829.55 7.619 7.619 0 0 1-5.971-2.893z"/>
        <path d="M8.316 11.088a.355.355 0 0 0 .258.43c.336.084.678.135 1.022.154v.304a.354.354 0 1 0 .708 0v-.65a.354.354 0 0 0-.105-.252.33.33 0 0 0-.253-.102 4.709 4.709 0 0 1-1.2-.142.354.354 0 0 0-.43.258z"/>
    </g>
</svg>
