<?xml version="1.0" encoding="UTF-8"?>
<svg width="24px" height="24px" viewBox="0 0 24 24" version="1.1" xmlns="http://www.w3.org/2000/svg" xmlns:xlink="http://www.w3.org/1999/xlink">
    <!-- Generator: Sketch 46.1 (44463) - http://www.bohemiancoding.com/sketch -->
    <title>icon-hamburger</title>
    <desc>Created with Sketch.</desc>
    <defs></defs>
    <g id="Page-1" stroke="none" stroke-width="1" fill="none" fill-rule="evenodd">
        <g id="icon-hamburger" fill-rule="nonzero" fill="#5e6164">
            <path d="M12.03174,0.23877 C5.5376,0.23877 0.2544,5.52197 0.2544,12.01611 C0.2544,18.50976 5.5376,23.79297 12.03174,23.79297 C18.52539,23.79297 23.8086,18.50977 23.8086,12.01611 C23.80859,5.52197 18.52539,0.23877 12.03174,0.23877 Z M12.03174,22.79297 C6.08887,22.79297 1.2544,17.95801 1.2544,12.01611 C1.2544,6.07324 6.08887,1.23877 12.03174,1.23877 C17.97363,1.23877 22.8086,6.07324 22.8086,12.01611 C22.80859,17.95801 17.97363,22.79297 12.03174,22.79297 Z" id="Shape"></path>
            <path d="M17.05859,12.02686 L7.05859,12.02686 C6.78222,12.02686 6.55859,12.25049 6.55859,12.52686 C6.55859,12.80323 6.78222,13.02735 7.05859,13.02735 L17.05859,13.02735 C17.33496,13.02735 17.55859,12.80323 17.55859,12.52686 C17.55859,12.25049 17.33496,12.02686 17.05859,12.02686 Z" id="Shape"></path>
            <path d="M17.05859,9.02637 L7.05859,9.02637 C6.78222,9.02637 6.55859,9.25 6.55859,9.52637 C6.55859,9.80274 6.78222,10.02637 7.05859,10.02637 L17.05859,10.02637 C17.33496,10.02637 17.55859,9.80274 17.55859,9.52637 C17.55859,9.25 17.33496,9.02637 17.05859,9.02637 Z" id="Shape"></path>
            <path d="M17.05859,15.02734 L7.05859,15.02734 C6.78222,15.02734 6.55859,15.25097 6.55859,15.52734 C6.55859,15.80371 6.78222,16.02734 7.05859,16.02734 L17.05859,16.02734 C17.33496,16.02734 17.55859,15.80371 17.55859,15.52734 C17.55859,15.25097 17.33496,15.02734 17.05859,15.02734 Z" id="Shape"></path>
        </g>
    </g>
</svg>