<svg xmlns="http://www.w3.org/2000/svg" width="16" height="14" viewBox="0 0 24 24">
  <g fill="#ff273a">
    <path d="M23.59 18.53c0-.001 0-.001 0 0L14.589 2.672c-.533-.94-1.498-1.501-2.582-1.501-1.083 0-2.047.562-2.581 1.501l-9 15.857c-.527.929-.52 2.034.018 2.958.538.924 1.497 1.476 2.564 1.476h18c1.067 0 2.025-.552 2.563-1.475.538-.924.545-2.03.019-2.958zm-.883 2.454c-.356.613-.992.979-1.699.979h-18c-.708 0-1.343-.366-1.7-.979-.356-.613-.361-1.346-.012-1.961l9-15.858c.353-.623.993-.995 1.711-.995.719 0 1.359.372 1.712.995l9.001 15.857c.349.616.344 1.35-.013 1.962z"/>
    <path d="M12.008 7.306c-.276 0-.5.224-.5.5v7.181c0 .276.224.5.5.5s.5-.224.5-.5V7.806c0-.276-.224-.5-.5-.5zM12.008 17.622c-.276 0-.5.224-.5.5v.249c0 .276.224.5.5.5s.5-.224.5-.5v-.249c0-.277-.224-.5-.5-.5z"/>
  </g>
</svg>