<svg xmlns="http://www.w3.org/2000/svg" width="16" height="14" viewBox="0 0 24 24">
  <path fill="#058339" d="M18.307 6.001l-2.021 2.021c-.195.195-.195.512 0 .707.098.098.226.146.354.146s.256-.049.354-.146l2.867-2.867c.099-.099.147-.228.146-.357 0-.001.001-.002.001-.004 0-.148-.067-.278-.17-.369l-2.844-2.844c-.195-.195-.512-.195-.707 0s-.195.512 0 .707l2.006 2.006H4.669C2.095 5.001 0 7.113 0 9.708v3.293c0 .276.224.5.5.5s.5-.223.5-.5V9.708c0-2.044 1.646-3.707 3.669-3.707h13.638zM23.5 10.501c-.276 0-.5.224-.5.5v3.297C23 16.339 21.347 18 19.313 18H5.68l2.017-2.017c.195-.195.195-.512 0-.707s-.512-.195-.707 0l-2.867 2.867c-.098.098-.147.227-.146.355v.001c0 .029.012.055.017.083.005.037.006.072.02.105.027.067.067.125.118.173l2.858 2.858c.098.098.226.146.354.146s.256-.049.354-.146c.195-.195.195-.512 0-.707L5.687 19h13.627c2.584 0 4.687-2.109 4.687-4.702v-3.297c-.001-.276-.225-.5-.501-.5z"/>
</svg>