<svg xmlns="http://www.w3.org/2000/svg" fill="#ffffff" viewBox="0 0 24 24">
	<path d="M23.78027 12.02393c0-6.49414-5.2832-11.77734-11.77686-11.77734C5.50927.24659.22607 5.52979.22607 12.02393c0 2.53485.81299 4.87915 2.18091 6.80286.0011.00269.00055.00549.00171.00818.03198.07355.08191.13153.1391.18005 2.14758 2.89661 5.58081 4.78577 9.45563 4.78577 1.6535 0 3.22668-.34595 4.65601-.96381.02692-.00946.05035-.0224.07495-.03613 4.14306-1.82618 7.04589-5.96638 7.04589-10.77692zM12.00342 1.24658c5.94189 0 10.77686 4.83447 10.77686 10.77734 0 2.42352-.81396 4.65521-2.16968 6.45746-.49847-.22406-.94482-.54694-1.30591-.9599v-.25977c.40234-.47363.7041-1.0293.88184-1.625.53516-.49316.65039-1.30957.25781-1.93164v-1.25293c0-1.85303-1.18555-2.95947-3.1709-2.95947-1.98633 0-3.17285 1.10645-3.17285 2.95947V13.708c-.36914.58887-.28516 1.36523.25293 1.91016.19629.66699.54688 1.28418 1.02148 1.79492.18848.20215.50391.21387.70703.02539.20215-.18848.21387-.50488.02539-.70703-.39551-.4248-.68066-.94531-.8252-1.50586-.02637-.10254-.13965-.23633-.22168-.30371-.22363-.18359-.25684-.51465-.07324-.7373.07324-.08984.11328-.20215.11328-.31738v-1.41504c0-1.28174.75098-1.95947 2.17285-1.95947 1.44043 0 2.1709.65918 2.1709 1.95947v1.41406c0 .10352.07617.26172.13574.3457.16797.23633.1123.56348-.12305.73145-.0957.06836-.16504.16797-.19434.28223-.14453.56055-.42969 1.08203-.82422 1.50586-.08594.09277-.13379.21484-.13379.34082v.63086c0 .11328.03809.22363.10938.31152.42017.52734.94446.95355 1.53705 1.26172-.84351.92352-1.83942 1.70306-2.95599 2.28961V19.8584c.00586-.44824-.25977-.84766-.68066-1.01953-4.39209-1.7373-5.20068-2.47168-5.34424-2.70117v-.53223c.52832-.625.92041-1.36133 1.14404-2.15039.65137-.59082.79443-1.5708.30957-2.36963V9.39014c0-2.35693-1.42432-3.70898-3.9082-3.70898-2.44775 0-3.90918 1.38672-3.90918 3.70898v1.68506c-.23242.35791-.3335.78174-.28564 1.21191.04785.43262.2417.82617.59277 1.15723.22266.79297.61572 1.5332 1.14697 2.16113v.53418c-.18353.30591-1.21002 1.04822-3.01453 1.86731-1.14807-1.71301-1.81995-3.77069-1.81995-5.98303.00001-5.94288 4.83449-10.77735 10.77736-10.77735zM3.65613 18.82947c1.23267-.5722 3.11731-1.56982 3.38293-2.44177.01416-.04688.02148-.0957.02148-.14551v-.82422c0-.12402-.04639-.24414-.12939-.33594-.52246-.57617-.89893-1.2793-1.08838-2.0332-.02637-.10596-.12744-.23047-.2124-.29834-.17871-.14307-.29053-.34668-.31592-.57373-.0249-.22705.03955-.4502.18213-.62842.07129-.08838.10986-.19873.10986-.3125v-1.8457c0-1.77246 1.00586-2.70898 2.90918-2.70898 1.92969 0 2.9082.91162 2.9082 2.70898v1.84473c0 .10693.06689.25342.13037.33936.28027.37939.19971.91553-.1792 1.1958-.09277.06885-.15918.16748-.1875.27979-.18994.75391-.56592 1.45703-1.08789 2.03223-.08301.0918-.12939.21191-.12939.33594v.82422c0 .0498.00732.09863.02197.14648.18506.60547 1.03418 1.43457 6.00293 3.46387v2.17285c-1.23608.49524-2.58087.77539-3.9917.77539-3.36315-.00002-6.36938-1.55007-8.34728-3.97133z"/>
</svg>