<svg width="24" height="24" viewBox="0 0 24 24">
  <path d="M23.583 10.398c.153 1.102.153 2.129 0 3.232a.4997.4997 0 0 1-.43.428l-2.7.354a8.6992 8.6992 0 0 1-.78 1.885l1.66 2.16c.137.178.138.426.002.606-.653.864-1.423 1.634-2.284 2.285a.4996.4996 0 0 1-.606-.002l-2.16-1.66c-.598.335-1.23.596-1.886.783l-.354 2.701c-.03.223-.204.4-.428.43-.552.076-1.085.114-1.618.114-.53 0-1.061-.037-1.611-.113a.4997.4997 0 0 1-.428-.431l-.353-2.699a8.6458 8.6458 0 0 1-1.89-.783l-2.161 1.66c-.179.137-.427.139-.606.003-.85-.642-1.64-1.432-2.285-2.282a.4996.4996 0 0 1 .002-.606l1.66-2.16a8.6883 8.6883 0 0 1-.785-1.892l-2.7-.354a.5007.5007 0 0 1-.43-.428 11.797 11.797 0 0 1 0-3.229.4997.4997 0 0 1 .43-.427l2.7-.354c.187-.659.45-1.293.785-1.891l-1.66-2.16a.4996.4996 0 0 1-.001-.607c.643-.85 1.433-1.639 2.284-2.283a.4996.4996 0 0 1 .606.002l2.16 1.661a8.7363 8.7363 0 0 1 1.89-.783l.354-2.7c.03-.223.204-.4.428-.43 1.103-.153 2.129-.152 3.229.001.224.031.399.207.428.43l.354 2.7a8.705 8.705 0 0 1 1.886.783l2.16-1.66c.178-.137.425-.137.606-.002.862.653 1.632 1.422 2.284 2.286.136.179.135.428-.002.606l-1.661 2.161c.334.597.595 1.229.781 1.884l2.699.354c.224.029.4.204.431.427zm-11.585 5.264c2.011 0 3.648-1.637 3.647-3.647 0-2.012-1.636-3.648-3.647-3.648-2.012 0-3.648 1.636-3.648 3.648 0 2.01 1.636 3.647 3.648 3.647z" fill="#000" fill-rule="nonzero"/>
</svg>