<svg xmlns="http://www.w3.org/2000/svg" viewBox="0 0 24 24">
  <path d="M16.982 7.028c-.195-.195-.512-.195-.707 0l-4.267 4.267-4.267-4.267c-.195-.195-.512-.195-.707 0s-.195.512 0 .707l4.267 4.267-4.267 4.267c-.195.195-.195.512 0 .707.098.098.226.146.354.146s.256-.049.354-.146l4.267-4.267 4.267 4.267c.098.098.226.146.354.146s.256-.049.354-.146c.195-.195.195-.512 0-.707l-4.267-4.267 4.267-4.267c.194-.195.194-.512-.002-.707z"/>
  <path d="M12.007.12C5.455.12.125 5.451.125 12.002s5.331 11.882 11.882 11.882 11.882-5.33 11.882-11.882S18.559.12 12.007.12zm0 22.765c-6 0-10.882-4.882-10.882-10.882S6.007 1.121 12.007 1.121s10.882 4.882 10.882 10.882-4.882 10.882-10.882 10.882z"/>
</svg>