<svg xmlns="http://www.w3.org/2000/svg" viewBox="0 0 24 24">
  <path d="M23.261 20.802l-6.12-6.12c1.019-1.484 1.619-3.277 1.619-5.209 0-5.087-4.139-9.226-9.225-9.226C4.448.247.309 4.386.309 9.473s4.139 9.226 9.226 9.226c1.932 0 3.726-.6 5.209-1.619l6.12 6.12c.32.32.746.497 1.198.497.001 0 .001 0 .001-.001.453 0 .878-.176 1.197-.496.662-.661.662-1.736.001-2.398zM1.309 9.473c0-4.536 3.69-8.226 8.226-8.226s8.225 3.69 8.225 8.226c0 4.535-3.689 8.226-8.225 8.226s-8.226-3.69-8.226-8.226zm21.245 13.02c-.131.131-.305.203-.49.203h-.001c-.186 0-.359-.072-.491-.203l-6.031-6.031c.352-.303.68-.631.983-.983l6.031 6.031c.27.271.27.711-.001.983z"/>
  <path d="M10.119 2.969c-1.906-.067-3.694.641-5.034 1.981C3.744 6.291 3.04 8.079 3.103 9.985c.009.271.231.483.499.483h.017c.276-.009.492-.24.483-.516-.054-1.626.546-3.151 1.69-4.294 1.143-1.143 2.681-1.733 4.294-1.69.294.038.507-.207.516-.483.009-.277-.207-.508-.483-.516z"/>
</svg>